<?xml version="1.0" encoding="UTF-8"?>
<svg width="20px" height="27px" viewBox="0 0 20 27" version="1.1" xmlns="http://www.w3.org/2000/svg" xmlns:xlink="http://www.w3.org/1999/xlink">
    <title>Vector</title>
    <g id="Page-1" stroke="none" stroke-width="1" fill="none" fill-rule="evenodd" stroke-linecap="round" stroke-linejoin="round">
        <g id="iPhone-13-Pro-Max" transform="translate(-280.000000, -862.000000)" stroke="#FFFFFF" stroke-width="1.5">
            <g id="Vector" transform="translate(281.000000, 863.000000)">
                <path d="M17.6861174,23.3511165 L17.6861174,2.99603675 C17.6927864,2.2080714 17.3861502,1.4497324 16.833671,0.88786035 C16.2811908,0.325988375 15.5281273,0.00661327075 14.7401616,0 L2.95634003,0 C2.16837391,0.00661327075 1.41531135,0.325988375 0.862831528,0.88786035 C0.310351673,1.4497324 0.00371520552,2.2080714 0.0103844516,2.99603675 L0.0103844516,23.3511165 C-0.0596448147,23.93884 0.228915334,24.5113975 0.742989429,24.80474 C1.25706342,25.0980825 1.89679112,25.0552325 2.36714869,24.6959462 L7.96446406,19.8631063 C8.46904342,19.40771 9.23629608,19.40771 9.74087491,19.8631063 L15.3293527,24.6974185 C15.799922,25.05699 16.440077,25.0997725 16.9543094,24.8060168 C17.4685411,24.5122625 17.7568387,23.9391015 17.6861174,23.3511165 Z" id="Rectangle_18260"></path>
            </g>
        </g>
    </g>
</svg>