<?xml version="1.0" encoding="UTF-8"?>
<svg width="26px" height="27px" viewBox="0 0 26 27" version="1.1" xmlns="http://www.w3.org/2000/svg" xmlns:xlink="http://www.w3.org/1999/xlink">
    <title>Vector</title>
    <g id="Page-1" stroke="none" stroke-width="1" fill="none" fill-rule="evenodd" stroke-linecap="round" stroke-linejoin="round">
        <g id="iPhone-13-Pro-Max" transform="translate(-395.000000, -37.000000)" stroke="#FFFFFF" stroke-width="1.5">
            <g id="Vector" transform="translate(396.000000, 38.000000)">
                <path d="M20.3419836,0.212728078 L22.9530999,2.29194984 C23.2052659,2.52926982 23.3474155,2.8607447 23.345537,3.20701747 C23.3436206,3.55329025 23.1978465,3.88318754 22.9430952,4.1177298 L20.9589141,6.4920777 L14.2076963,14.5438508 C14.0896021,14.6791231 13.9322124,14.7741397 13.7575038,14.8156338 L10.2560079,15.6093062 C9.7966278,15.6322885 9.39670151,15.2984127 9.33728199,14.842312 L9.33728199,11.2441081 C9.34920014,11.0706399 9.41908168,10.9062129 9.5357001,10.7772419 L16.1618646,3.28570775 L18.4361697,0.569547181 C18.8861155,-0.0202380786 19.7091461,-0.174331336 20.3419836,0.212728078 Z" id="Vector-8"></path>
                <path d="M10.8930015,3.11564998 L6.22434014,3.11564998 C2.77910097,3.12392837 -0.00736091679,5.92307967 0,9.36832173 L0,18.7473289 C-0.00736091679,22.1925705 2.77910097,24.9917222 6.22434014,25 L15.5616622,25 C19.006902,24.9917222 21.7933623,22.1925705 21.786003,18.7473289 L21.786003,12.4946572 M16.1619185,3.28572265 C16.6988145,4.58627827 18.4095454,7.0489974 20.958968,6.48542305 M4.66867601,20.3113301 L17.1189954,20.3113301" id="Vector-9"></path>
            </g>
        </g>
    </g>
</svg>