<?xml version="1.0" encoding="UTF-8"?>
<svg width="68px" height="68px" viewBox="0 0 68 68" version="1.1" xmlns="http://www.w3.org/2000/svg" xmlns:xlink="http://www.w3.org/1999/xlink">
    <title>Group</title>
    <g id="Page-1" stroke="none" stroke-width="1" fill="none" fill-rule="evenodd">
        <g id="iPhone-13-Pro-Max" transform="translate(-180.000000, -792.000000)">
            <g id="Group" transform="translate(180.000000, 792.000000)">
                <rect id="Rectangle" fill="#FFFFFF" x="0" y="0" width="68" height="68" rx="10"></rect>
                <g id="Vector" transform="translate(19.000000, 21.000000)" stroke="#000000" stroke-linecap="round" stroke-linejoin="round" stroke-width="1.5">
                    <path d="M4.74273018,6.9808398 L4.74273018,19.02516 C4.6668546,22.2462777 7.21441452,24.9200967 10.4354344,25 L11.3836238,25 L11.3836238,21.0161781 C11.3337044,18.8694528 13.031528,17.0877368 15.1781641,17.0341419 C17.3255145,17.0877314 19.0236251,18.8705484 18.9727057,21.0179638 L18.9727057,25 L19.9208936,25 C23.1412101,24.9191291 25.6876984,22.2455984 25.6118126,19.02516 L25.6118126,6.9808398 M0,10.577172 L12.9907234,0.729221591 C14.2876142,-0.243073864 16.0705016,-0.243073864 17.3673924,0.729221591 L25.6135996,6.97905441 M25.6135996,6.97905413 L30.3563297,10.577172" id="Vector-13"></path>
                </g>
            </g>
        </g>
    </g>
</svg>