<?xml version="1.0" encoding="UTF-8"?>
<svg width="40px" height="27px" viewBox="0 0 40 27" version="1.1" xmlns="http://www.w3.org/2000/svg" xmlns:xlink="http://www.w3.org/1999/xlink">
    <title>Vector</title>
    <g id="Page-1" stroke="none" stroke-width="1" fill="none" fill-rule="evenodd" stroke-linecap="round" stroke-linejoin="round">
        <g id="iPhone-13-Pro-Max" transform="translate(-9.000000, -862.000000)" stroke="#FFFFFF" stroke-width="1.5">
            <g id="Vector" transform="translate(10.000000, 863.000000)">
                <path d="M8.3333336,0 L18.7499997,0 C23.3523727,0 27.0833348,3.7309605 27.0833348,8.3333335 L27.0833348,8.59375 L31.1249994,6.0666665 C32.4094535,5.26388025 34.0283911,5.2213725 35.3532041,5.9556475 C36.6780157,6.68992325 37.5,8.085309 37.5,9.6 L37.5,15.4 C37.5030383,16.9161825 36.6822382,18.314345 35.3568529,19.05067 C34.0314687,19.786995 32.410721,19.7452485 31.1249994,18.9416663 L27.0833348,16.40625 L27.0833348,16.6666675 C27.0833348,21.26904 23.3523727,25 18.7499997,25 L8.3333336,25 C3.7309602,25 0,21.26904 0,16.6666675 L0,8.3333335 C0,3.7309605 3.7309602,0 8.3333336,0 Z" id="Vector-22"></path>
                <path d="M27.0833333,8.59375 L27.0833333,16.40625 M13.5416667,8.33333333 L13.5416667,12.5 M13.5416667,12.5 L13.5416667,16.6666667 M13.5416667,12.5 L9.375,12.5 M13.5416667,12.5 L17.7083333,12.5" id="Vector-23"></path>
            </g>
        </g>
    </g>
</svg>