<?xml version="1.0" encoding="UTF-8"?>
<svg width="38px" height="27px" viewBox="0 0 38 27" version="1.1" xmlns="http://www.w3.org/2000/svg" xmlns:xlink="http://www.w3.org/1999/xlink">
    <title>Vector</title>
    <g id="Page-1" stroke="none" stroke-width="1" fill="none" fill-rule="evenodd" stroke-linecap="round" stroke-linejoin="round">
        <g id="iPhone-13-Pro-Max" transform="translate(-67.000000, -862.000000)" stroke="#FFFFFF" stroke-width="1.5">
            <g id="Vector" transform="translate(68.000000, 863.000000)">
                <path d="M27.9672946,24.9949625 C32.0805754,25.14471 35.5392736,21.937509 35.699891,17.82464 L35.699891,7.17536125 C35.5392736,3.06249113 32.0805754,-0.144711033 27.9672946,0.00503758575 L7.73259639,0.00503758575 C3.61931671,-0.144711033 0.160616355,3.06249113 0,7.17536125 L0,17.82464 C0.160616355,21.937509 3.61931671,25.14471 7.73259639,24.9949625 L27.9672946,24.9949625 Z" id="Vector-20"></path>
                <path d="M16.9717281,7.45742559 L22.6140957,11.2915941 C22.9796238,11.5050235 23.2043526,11.8964745 23.2043526,12.3197508 C23.2043526,12.7430277 22.9796238,13.1344783 22.6140957,13.3479075 L16.9717281,17.542645 C15.9007313,18.269137 14.2799564,17.6497452 14.2799564,16.514488 L14.2799564,8.48201251 C14.2799564,7.35211091 15.9025164,6.73093279 16.9717281,7.45742559 Z" id="Vector-21"></path>
            </g>
        </g>
    </g>
</svg>